<svg id="visual" viewBox="0 0 3000 3000" width="3000" height="3000" xmlns="http://www.w3.org/2000/svg" xmlns:xlink="http://www.w3.org/1999/xlink" version="1.1"><rect x="0" y="0" width="3000" height="3000" fill="#60d66d"></rect><defs><linearGradient id="grad1_0" x1="0%" y1="0%" x2="100%" y2="100%"><stop offset="30%" stop-color="#f7f4a4" stop-opacity="1"></stop><stop offset="70%" stop-color="#f7f4a4" stop-opacity="1"></stop></linearGradient></defs><defs><linearGradient id="grad1_1" x1="0%" y1="0%" x2="100%" y2="100%"><stop offset="30%" stop-color="#f7f4a4" stop-opacity="1"></stop><stop offset="70%" stop-color="#e8ef98" stop-opacity="1"></stop></linearGradient></defs><defs><linearGradient id="grad1_2" x1="0%" y1="0%" x2="100%" y2="100%"><stop offset="30%" stop-color="#d7eb8c" stop-opacity="1"></stop><stop offset="70%" stop-color="#e8ef98" stop-opacity="1"></stop></linearGradient></defs><defs><linearGradient id="grad1_3" x1="0%" y1="0%" x2="100%" y2="100%"><stop offset="30%" stop-color="#d7eb8c" stop-opacity="1"></stop><stop offset="70%" stop-color="#c4e783" stop-opacity="1"></stop></linearGradient></defs><defs><linearGradient id="grad1_4" x1="0%" y1="0%" x2="100%" y2="100%"><stop offset="30%" stop-color="#afe37a" stop-opacity="1"></stop><stop offset="70%" stop-color="#c4e783" stop-opacity="1"></stop></linearGradient></defs><defs><linearGradient id="grad1_5" x1="0%" y1="0%" x2="100%" y2="100%"><stop offset="30%" stop-color="#afe37a" stop-opacity="1"></stop><stop offset="70%" stop-color="#99df74" stop-opacity="1"></stop></linearGradient></defs><defs><linearGradient id="grad1_6" x1="0%" y1="0%" x2="100%" y2="100%"><stop offset="30%" stop-color="#7fda70" stop-opacity="1"></stop><stop offset="70%" stop-color="#99df74" stop-opacity="1"></stop></linearGradient></defs><defs><linearGradient id="grad1_7" x1="0%" y1="0%" x2="100%" y2="100%"><stop offset="30%" stop-color="#7fda70" stop-opacity="1"></stop><stop offset="70%" stop-color="#60d66d" stop-opacity="1"></stop></linearGradient></defs><defs><linearGradient id="grad2_0" x1="0%" y1="0%" x2="100%" y2="100%"><stop offset="30%" stop-color="#f7f4a4" stop-opacity="1"></stop><stop offset="70%" stop-color="#f7f4a4" stop-opacity="1"></stop></linearGradient></defs><defs><linearGradient id="grad2_1" x1="0%" y1="0%" x2="100%" y2="100%"><stop offset="30%" stop-color="#e8ef98" stop-opacity="1"></stop><stop offset="70%" stop-color="#f7f4a4" stop-opacity="1"></stop></linearGradient></defs><defs><linearGradient id="grad2_2" x1="0%" y1="0%" x2="100%" y2="100%"><stop offset="30%" stop-color="#e8ef98" stop-opacity="1"></stop><stop offset="70%" stop-color="#d7eb8c" stop-opacity="1"></stop></linearGradient></defs><defs><linearGradient id="grad2_3" x1="0%" y1="0%" x2="100%" y2="100%"><stop offset="30%" stop-color="#c4e783" stop-opacity="1"></stop><stop offset="70%" stop-color="#d7eb8c" stop-opacity="1"></stop></linearGradient></defs><defs><linearGradient id="grad2_4" x1="0%" y1="0%" x2="100%" y2="100%"><stop offset="30%" stop-color="#c4e783" stop-opacity="1"></stop><stop offset="70%" stop-color="#afe37a" stop-opacity="1"></stop></linearGradient></defs><defs><linearGradient id="grad2_5" x1="0%" y1="0%" x2="100%" y2="100%"><stop offset="30%" stop-color="#99df74" stop-opacity="1"></stop><stop offset="70%" stop-color="#afe37a" stop-opacity="1"></stop></linearGradient></defs><defs><linearGradient id="grad2_6" x1="0%" y1="0%" x2="100%" y2="100%"><stop offset="30%" stop-color="#99df74" stop-opacity="1"></stop><stop offset="70%" stop-color="#7fda70" stop-opacity="1"></stop></linearGradient></defs><defs><linearGradient id="grad2_7" x1="0%" y1="0%" x2="100%" y2="100%"><stop offset="30%" stop-color="#60d66d" stop-opacity="1"></stop><stop offset="70%" stop-color="#7fda70" stop-opacity="1"></stop></linearGradient></defs><g transform="translate(3000, 0)"><path d="M0 2121.3C-229 1955.1 -458 1788.9 -699.2 1687.9C-940.4 1587 -1193.8 1551.2 -1420.6 1420.6C-1647.4 1289.9 -1847.5 1064.4 -1959.8 811.8C-2072.2 559.2 -2096.8 279.6 -2121.3 0L0 0Z" fill="#70d86e"></path><path d="M0 1856.2C-200.4 1710.7 -400.7 1565.3 -611.8 1476.9C-822.8 1388.6 -1044.6 1357.3 -1243 1243C-1441.4 1128.7 -1616.6 931.3 -1714.9 710.3C-1813.2 489.3 -1834.7 244.7 -1856.2 0L0 0Z" fill="#8cdd72"></path><path d="M0 1591C-171.7 1466.3 -343.5 1341.7 -524.4 1265.9C-705.3 1190.2 -895.3 1163.4 -1065.4 1065.4C-1235.5 967.4 -1385.6 798.3 -1469.9 608.8C-1554.1 419.4 -1572.6 209.7 -1591 0L0 0Z" fill="#a4e177"></path><path d="M0 1325.8C-143.1 1221.9 -286.2 1118.1 -437 1055C-587.7 991.8 -746.1 969.5 -887.9 887.9C-1029.6 806.2 -1154.7 665.2 -1224.9 507.4C-1295.1 349.5 -1310.5 174.8 -1325.8 0L0 0Z" fill="#bae57e"></path><path d="M0 1060.7C-114.5 977.6 -229 894.4 -349.6 844C-470.2 793.5 -596.9 775.6 -710.3 710.3C-823.7 645 -923.7 532.2 -979.9 405.9C-1036.1 279.6 -1048.4 139.8 -1060.7 0L0 0Z" fill="#cde987"></path><path d="M0 795.5C-85.9 733.2 -171.7 670.8 -262.2 633C-352.6 595.1 -447.7 581.7 -532.7 532.7C-617.8 483.7 -692.8 399.1 -734.9 304.4C-777.1 209.7 -786.3 104.9 -795.5 0L0 0Z" fill="#dfed92"></path><path d="M0 530.3C-57.2 488.8 -114.5 447.2 -174.8 422C-235.1 396.7 -298.4 387.8 -355.1 355.1C-411.8 322.5 -461.9 266.1 -490 202.9C-518 139.8 -524.2 69.9 -530.3 0L0 0Z" fill="#eff29e"></path><path d="M0 265.2C-28.6 244.4 -57.2 223.6 -87.4 211C-117.5 198.4 -149.2 193.9 -177.6 177.6C-205.9 161.2 -230.9 133 -245 101.5C-259 69.9 -262.1 35 -265.2 0L0 0Z" fill="#f7f4a4"></path></g><g transform="translate(0, 3000)"><path d="M0 -2121.3C274 -2087.2 548 -2053.2 811.3 -1958.6C1074.6 -1864.1 1327.2 -1709.1 1500 -1500C1672.8 -1290.9 1765.8 -1027.8 1856.1 -768.8C1946.3 -509.8 2033.8 -254.9 2121.3 0L0 0Z" fill="#70d86e"></path><path d="M0 -1856.2C239.7 -1826.3 479.5 -1796.5 709.9 -1713.8C940.3 -1631.1 1161.3 -1495.4 1312.5 -1312.5C1463.7 -1129.6 1545.1 -899.3 1624.1 -672.7C1703 -446.1 1779.6 -223 1856.2 0L0 0Z" fill="#8cdd72"></path><path d="M0 -1591C205.5 -1565.4 411 -1539.9 608.5 -1469C805.9 -1398.1 995.4 -1281.8 1125 -1125C1254.6 -968.2 1324.4 -770.9 1392.1 -576.6C1459.7 -382.4 1525.4 -191.2 1591 0L0 0Z" fill="#a4e177"></path><path d="M0 -1325.8C171.2 -1304.5 342.5 -1283.2 507.1 -1224.1C671.6 -1165 829.5 -1068.2 937.5 -937.5C1045.5 -806.8 1103.6 -642.4 1160 -480.5C1216.5 -318.6 1271.1 -159.3 1325.8 0L0 0Z" fill="#bae57e"></path><path d="M0 -1060.7C137 -1043.6 274 -1026.6 405.6 -979.3C537.3 -932 663.6 -854.5 750 -750C836.4 -645.5 882.9 -513.9 928 -384.4C973.2 -254.9 1016.9 -127.5 1060.7 0L0 0Z" fill="#cde987"></path><path d="M0 -795.5C102.7 -782.7 205.5 -769.9 304.2 -734.5C403 -699 497.7 -640.9 562.5 -562.5C627.3 -484.1 662.2 -385.4 696 -288.3C729.9 -191.2 762.7 -95.6 795.5 0L0 0Z" fill="#dfed92"></path><path d="M0 -530.3C68.5 -521.8 137 -513.3 202.8 -489.7C268.6 -466 331.8 -427.3 375 -375C418.2 -322.7 441.5 -257 464 -192.2C486.6 -127.5 508.5 -63.7 530.3 0L0 0Z" fill="#eff29e"></path><path d="M0 -265.2C34.2 -260.9 68.5 -256.6 101.4 -244.8C134.3 -233 165.9 -213.6 187.5 -187.5C209.1 -161.4 220.7 -128.5 232 -96.1C243.3 -63.7 254.2 -31.9 265.2 0L0 0Z" fill="#f7f4a4"></path></g></svg>