<svg id="visual" viewBox="0 0 2880 1800" width="2880" height="1800" xmlns="http://www.w3.org/2000/svg" xmlns:xlink="http://www.w3.org/1999/xlink" version="1.1"><rect x="0" y="0" width="2880" height="1800" fill="#aad895"></rect><defs><linearGradient id="grad1_0" x1="37.5%" y1="100%" x2="100%" y2="0%"><stop offset="17.999999999999996%" stop-color="#49c557" stop-opacity="1"></stop><stop offset="82%" stop-color="#49c557" stop-opacity="1"></stop></linearGradient></defs><defs><linearGradient id="grad1_1" x1="37.5%" y1="100%" x2="100%" y2="0%"><stop offset="17.999999999999996%" stop-color="#49c557" stop-opacity="1"></stop><stop offset="82%" stop-color="#5cc85f" stop-opacity="1"></stop></linearGradient></defs><defs><linearGradient id="grad1_2" x1="37.5%" y1="100%" x2="100%" y2="0%"><stop offset="17.999999999999996%" stop-color="#6ccb67" stop-opacity="1"></stop><stop offset="82%" stop-color="#5cc85f" stop-opacity="1"></stop></linearGradient></defs><defs><linearGradient id="grad1_3" x1="37.5%" y1="100%" x2="100%" y2="0%"><stop offset="17.999999999999996%" stop-color="#6ccb67" stop-opacity="1"></stop><stop offset="82%" stop-color="#7bcd70" stop-opacity="1"></stop></linearGradient></defs><defs><linearGradient id="grad1_4" x1="37.5%" y1="100%" x2="100%" y2="0%"><stop offset="17.999999999999996%" stop-color="#88d079" stop-opacity="1"></stop><stop offset="82%" stop-color="#7bcd70" stop-opacity="1"></stop></linearGradient></defs><defs><linearGradient id="grad1_5" x1="37.5%" y1="100%" x2="100%" y2="0%"><stop offset="17.999999999999996%" stop-color="#88d079" stop-opacity="1"></stop><stop offset="82%" stop-color="#94d382" stop-opacity="1"></stop></linearGradient></defs><defs><linearGradient id="grad1_6" x1="37.5%" y1="100%" x2="100%" y2="0%"><stop offset="17.999999999999996%" stop-color="#9fd58b" stop-opacity="1"></stop><stop offset="82%" stop-color="#94d382" stop-opacity="1"></stop></linearGradient></defs><defs><linearGradient id="grad1_7" x1="37.5%" y1="100%" x2="100%" y2="0%"><stop offset="17.999999999999996%" stop-color="#9fd58b" stop-opacity="1"></stop><stop offset="82%" stop-color="#aad895" stop-opacity="1"></stop></linearGradient></defs><defs><linearGradient id="grad2_0" x1="0%" y1="100%" x2="62.5%" y2="0%"><stop offset="17.999999999999996%" stop-color="#49c557" stop-opacity="1"></stop><stop offset="82%" stop-color="#49c557" stop-opacity="1"></stop></linearGradient></defs><defs><linearGradient id="grad2_1" x1="0%" y1="100%" x2="62.5%" y2="0%"><stop offset="17.999999999999996%" stop-color="#5cc85f" stop-opacity="1"></stop><stop offset="82%" stop-color="#49c557" stop-opacity="1"></stop></linearGradient></defs><defs><linearGradient id="grad2_2" x1="0%" y1="100%" x2="62.5%" y2="0%"><stop offset="17.999999999999996%" stop-color="#5cc85f" stop-opacity="1"></stop><stop offset="82%" stop-color="#6ccb67" stop-opacity="1"></stop></linearGradient></defs><defs><linearGradient id="grad2_3" x1="0%" y1="100%" x2="62.5%" y2="0%"><stop offset="17.999999999999996%" stop-color="#7bcd70" stop-opacity="1"></stop><stop offset="82%" stop-color="#6ccb67" stop-opacity="1"></stop></linearGradient></defs><defs><linearGradient id="grad2_4" x1="0%" y1="100%" x2="62.5%" y2="0%"><stop offset="17.999999999999996%" stop-color="#7bcd70" stop-opacity="1"></stop><stop offset="82%" stop-color="#88d079" stop-opacity="1"></stop></linearGradient></defs><defs><linearGradient id="grad2_5" x1="0%" y1="100%" x2="62.5%" y2="0%"><stop offset="17.999999999999996%" stop-color="#94d382" stop-opacity="1"></stop><stop offset="82%" stop-color="#88d079" stop-opacity="1"></stop></linearGradient></defs><defs><linearGradient id="grad2_6" x1="0%" y1="100%" x2="62.5%" y2="0%"><stop offset="17.999999999999996%" stop-color="#94d382" stop-opacity="1"></stop><stop offset="82%" stop-color="#9fd58b" stop-opacity="1"></stop></linearGradient></defs><defs><linearGradient id="grad2_7" x1="0%" y1="100%" x2="62.5%" y2="0%"><stop offset="17.999999999999996%" stop-color="#aad895" stop-opacity="1"></stop><stop offset="82%" stop-color="#9fd58b" stop-opacity="1"></stop></linearGradient></defs><g transform="translate(2880, 1800)"><path d="M-1698.1 0C-1552.4 -236.9 -1406.7 -473.7 -1283.4 -741C-1160.2 -1008.3 -1059.2 -1306 -849.1 -1470.6C-638.9 -1635.2 -319.4 -1666.7 0 -1698.1L0 0Z" fill="#a5d790"></path><path d="M-1485.9 0C-1358.4 -207.2 -1230.9 -414.5 -1123 -648.4C-1015.1 -882.3 -926.8 -1142.8 -742.9 -1286.8C-559 -1430.8 -279.5 -1458.3 0 -1485.9L0 0Z" fill="#9ad487"></path><path d="M-1273.6 0C-1164.3 -177.6 -1055.1 -355.3 -962.6 -555.8C-870.1 -756.2 -794.4 -979.5 -636.8 -1103C-479.2 -1226.4 -239.6 -1250 0 -1273.6L0 0Z" fill="#8ed17d"></path><path d="M-1061.3 0C-970.3 -148 -879.2 -296.1 -802.2 -463.1C-725.1 -630.2 -662 -816.3 -530.7 -919.1C-399.3 -1022 -199.7 -1041.7 0 -1061.3L0 0Z" fill="#81cf74"></path><path d="M-849.1 0C-776.2 -118.4 -703.4 -236.9 -641.7 -370.5C-580.1 -504.1 -529.6 -653 -424.5 -735.3C-319.4 -817.6 -159.7 -833.3 0 -849.1L0 0Z" fill="#74cc6c"></path><path d="M-636.8 0C-582.2 -88.8 -527.5 -177.6 -481.3 -277.9C-435.1 -378.1 -397.2 -489.8 -318.4 -551.5C-239.6 -613.2 -119.8 -625 0 -636.8L0 0Z" fill="#65c963"></path><path d="M-424.5 0C-388.1 -59.2 -351.7 -118.4 -320.9 -185.3C-290 -252.1 -264.8 -326.5 -212.3 -367.7C-159.7 -408.8 -79.9 -416.7 0 -424.5L0 0Z" fill="#53c65b"></path><path d="M-212.3 0C-194.1 -29.6 -175.8 -59.2 -160.4 -92.6C-145 -126 -132.4 -163.3 -106.1 -183.8C-79.9 -204.4 -39.9 -208.3 0 -212.3L0 0Z" fill="#49c557"></path></g><g transform="translate(0, 0)"><path d="M1698.1 0C1654.7 298.8 1611.3 597.5 1470.6 849.1C1329.9 1100.6 1091.8 1304.8 830.5 1438.5C569.2 1572.1 284.6 1635.1 0 1698.1L0 0Z" fill="#a5d790"></path><path d="M1485.9 0C1447.9 261.4 1409.9 522.8 1286.8 742.9C1163.7 963 955.3 1141.7 726.7 1258.7C498 1375.6 249 1430.7 0 1485.9L0 0Z" fill="#9ad487"></path><path d="M1273.6 0C1241 224.1 1208.5 448.2 1103 636.8C997.4 825.4 818.9 978.6 622.9 1078.9C426.9 1179.1 213.4 1226.3 0 1273.6L0 0Z" fill="#8ed17d"></path><path d="M1061.3 0C1034.2 186.7 1007.1 373.5 919.1 530.7C831.2 687.9 682.4 815.5 519.1 899C355.7 982.6 177.9 1021.9 0 1061.3L0 0Z" fill="#81cf74"></path><path d="M849.1 0C827.4 149.4 805.7 298.8 735.3 424.5C664.9 550.3 545.9 652.4 415.3 719.2C284.6 786.1 142.3 817.6 0 849.1L0 0Z" fill="#74cc6c"></path><path d="M636.8 0C620.5 112 604.3 224.1 551.5 318.4C498.7 412.7 409.4 489.3 311.4 539.4C213.4 589.5 106.7 613.2 0 636.8L0 0Z" fill="#65c963"></path><path d="M424.5 0C413.7 74.7 402.8 149.4 367.7 212.3C332.5 275.1 273 326.2 207.6 359.6C142.3 393 71.1 408.8 0 424.5L0 0Z" fill="#53c65b"></path><path d="M212.3 0C206.8 37.3 201.4 74.7 183.8 106.1C166.2 137.6 136.5 163.1 103.8 179.8C71.1 196.5 35.6 204.4 0 212.3L0 0Z" fill="#49c557"></path></g></svg>