<svg id="visual" viewBox="0 0 2880 1800" width="2880" height="1800" xmlns="http://www.w3.org/2000/svg" xmlns:xlink="http://www.w3.org/1999/xlink" version="1.1"><rect x="0" y="0" width="2880" height="1800" fill="#daffc9"></rect><defs><linearGradient id="grad1_0" x1="37.5%" y1="0%" x2="100%" y2="100%"><stop offset="17.999999999999996%" stop-color="#7ced48" stop-opacity="1"></stop><stop offset="82%" stop-color="#7ced48" stop-opacity="1"></stop></linearGradient></defs><defs><linearGradient id="grad1_1" x1="37.5%" y1="0%" x2="100%" y2="100%"><stop offset="17.999999999999996%" stop-color="#7ced48" stop-opacity="1"></stop><stop offset="82%" stop-color="#8bf05e" stop-opacity="1"></stop></linearGradient></defs><defs><linearGradient id="grad1_2" x1="37.5%" y1="0%" x2="100%" y2="100%"><stop offset="17.999999999999996%" stop-color="#9af371" stop-opacity="1"></stop><stop offset="82%" stop-color="#8bf05e" stop-opacity="1"></stop></linearGradient></defs><defs><linearGradient id="grad1_3" x1="37.5%" y1="0%" x2="100%" y2="100%"><stop offset="17.999999999999996%" stop-color="#9af371" stop-opacity="1"></stop><stop offset="82%" stop-color="#a7f584" stop-opacity="1"></stop></linearGradient></defs><defs><linearGradient id="grad1_4" x1="37.5%" y1="0%" x2="100%" y2="100%"><stop offset="17.999999999999996%" stop-color="#b5f896" stop-opacity="1"></stop><stop offset="82%" stop-color="#a7f584" stop-opacity="1"></stop></linearGradient></defs><defs><linearGradient id="grad1_5" x1="37.5%" y1="0%" x2="100%" y2="100%"><stop offset="17.999999999999996%" stop-color="#b5f896" stop-opacity="1"></stop><stop offset="82%" stop-color="#c1faa7" stop-opacity="1"></stop></linearGradient></defs><defs><linearGradient id="grad1_6" x1="37.5%" y1="0%" x2="100%" y2="100%"><stop offset="17.999999999999996%" stop-color="#cefdb8" stop-opacity="1"></stop><stop offset="82%" stop-color="#c1faa7" stop-opacity="1"></stop></linearGradient></defs><defs><linearGradient id="grad1_7" x1="37.5%" y1="0%" x2="100%" y2="100%"><stop offset="17.999999999999996%" stop-color="#cefdb8" stop-opacity="1"></stop><stop offset="82%" stop-color="#daffc9" stop-opacity="1"></stop></linearGradient></defs><defs><linearGradient id="grad2_0" x1="0%" y1="0%" x2="62.5%" y2="100%"><stop offset="17.999999999999996%" stop-color="#7ced48" stop-opacity="1"></stop><stop offset="82%" stop-color="#7ced48" stop-opacity="1"></stop></linearGradient></defs><defs><linearGradient id="grad2_1" x1="0%" y1="0%" x2="62.5%" y2="100%"><stop offset="17.999999999999996%" stop-color="#8bf05e" stop-opacity="1"></stop><stop offset="82%" stop-color="#7ced48" stop-opacity="1"></stop></linearGradient></defs><defs><linearGradient id="grad2_2" x1="0%" y1="0%" x2="62.5%" y2="100%"><stop offset="17.999999999999996%" stop-color="#8bf05e" stop-opacity="1"></stop><stop offset="82%" stop-color="#9af371" stop-opacity="1"></stop></linearGradient></defs><defs><linearGradient id="grad2_3" x1="0%" y1="0%" x2="62.5%" y2="100%"><stop offset="17.999999999999996%" stop-color="#a7f584" stop-opacity="1"></stop><stop offset="82%" stop-color="#9af371" stop-opacity="1"></stop></linearGradient></defs><defs><linearGradient id="grad2_4" x1="0%" y1="0%" x2="62.5%" y2="100%"><stop offset="17.999999999999996%" stop-color="#a7f584" stop-opacity="1"></stop><stop offset="82%" stop-color="#b5f896" stop-opacity="1"></stop></linearGradient></defs><defs><linearGradient id="grad2_5" x1="0%" y1="0%" x2="62.5%" y2="100%"><stop offset="17.999999999999996%" stop-color="#c1faa7" stop-opacity="1"></stop><stop offset="82%" stop-color="#b5f896" stop-opacity="1"></stop></linearGradient></defs><defs><linearGradient id="grad2_6" x1="0%" y1="0%" x2="62.5%" y2="100%"><stop offset="17.999999999999996%" stop-color="#c1faa7" stop-opacity="1"></stop><stop offset="82%" stop-color="#cefdb8" stop-opacity="1"></stop></linearGradient></defs><defs><linearGradient id="grad2_7" x1="0%" y1="0%" x2="62.5%" y2="100%"><stop offset="17.999999999999996%" stop-color="#daffc9" stop-opacity="1"></stop><stop offset="82%" stop-color="#cefdb8" stop-opacity="1"></stop></linearGradient></defs><g transform="translate(2880, 0)"><path d="M0 1520C-224.2 1427.4 -448.4 1334.9 -717 1241.9C-985.6 1148.9 -1298.7 1055.5 -1469.6 848.5C-1640.6 641.5 -1669.3 320.7 -1698.1 0L0 0Z" fill="#d4fec1"></path><path d="M0 1330C-196.2 1249 -392.3 1168 -627.4 1086.6C-862.4 1005.3 -1136.4 923.6 -1285.9 742.4C-1435.5 561.3 -1460.7 280.6 -1485.9 0L0 0Z" fill="#c8fcb0"></path><path d="M0 1140C-168.1 1070.6 -336.3 1001.1 -537.7 931.4C-739.2 861.7 -974 791.7 -1102.2 636.4C-1230.4 481.1 -1252 240.5 -1273.6 0L0 0Z" fill="#bbf99e"></path><path d="M0 950C-140.1 892.1 -280.2 834.3 -448.1 776.2C-616 718.1 -811.7 659.7 -918.5 530.3C-1025.4 400.9 -1043.3 200.5 -1061.3 0L0 0Z" fill="#aef78d"></path><path d="M0 760C-112.1 713.7 -224.2 667.4 -358.5 620.9C-492.8 574.5 -649.4 527.8 -734.8 424.3C-820.3 320.7 -834.7 160.4 -849.1 0L0 0Z" fill="#a1f47b"></path><path d="M0 570C-84.1 535.3 -168.1 500.6 -268.9 465.7C-369.6 430.8 -487 395.8 -551.1 318.2C-615.2 240.5 -626 120.3 -636.8 0L0 0Z" fill="#93f168"></path><path d="M0 380C-56 356.9 -112.1 333.7 -179.2 310.5C-246.4 287.2 -324.7 263.9 -367.4 212.1C-410.1 160.4 -417.3 80.2 -424.5 0L0 0Z" fill="#84ee53"></path><path d="M0 190C-28 178.4 -56 166.9 -89.6 155.2C-123.2 143.6 -162.3 131.9 -183.7 106.1C-205.1 80.2 -208.7 40.1 -212.3 0L0 0Z" fill="#7ced48"></path></g><g transform="translate(0, 1800)"><path d="M0 -1486C319 -1547.2 638.1 -1608.5 849.1 -1470.6C1060 -1332.7 1162.9 -995.8 1242.7 -717.5C1322.6 -439.2 1379.3 -219.6 1436 0L0 0Z" fill="#d4fec1"></path><path d="M0 -1300.2C279.2 -1353.8 558.3 -1407.4 742.9 -1286.8C927.5 -1166.2 1017.6 -871.3 1087.4 -627.8C1157.2 -384.3 1206.9 -192.2 1256.5 0L0 0Z" fill="#c8fcb0"></path><path d="M0 -1114.5C239.3 -1160.4 478.6 -1206.4 636.8 -1103C795 -999.6 872.2 -746.8 932.1 -538.1C991.9 -329.4 1034.5 -164.7 1077 0L0 0Z" fill="#bbf99e"></path><path d="M0 -928.7C199.4 -967 398.8 -1005.3 530.7 -919.1C662.5 -833 726.8 -622.4 776.7 -448.4C826.6 -274.5 862 -137.3 897.5 0L0 0Z" fill="#aef78d"></path><path d="M0 -743C159.5 -773.6 319 -804.2 424.5 -735.3C530 -666.4 581.5 -497.9 621.4 -358.8C661.3 -219.6 689.6 -109.8 718 0L0 0Z" fill="#a1f47b"></path><path d="M0 -557.2C119.6 -580.2 239.3 -603.2 318.4 -551.5C397.5 -499.8 436.1 -373.4 466 -269.1C496 -164.7 517.2 -82.4 538.5 0L0 0Z" fill="#93f168"></path><path d="M0 -371.5C79.8 -386.8 159.5 -402.1 212.3 -367.7C265 -333.2 290.7 -248.9 310.7 -179.4C330.6 -109.8 344.8 -54.9 359 0L0 0Z" fill="#84ee53"></path><path d="M0 -185.7C39.9 -193.4 79.8 -201.1 106.1 -183.8C132.5 -166.6 145.4 -124.5 155.3 -89.7C165.3 -54.9 172.4 -27.5 179.5 0L0 0Z" fill="#7ced48"></path></g></svg>