<svg id="visual" viewBox="0 0 2880 1800" width="2880" height="1800" xmlns="http://www.w3.org/2000/svg" xmlns:xlink="http://www.w3.org/1999/xlink" version="1.1"><rect x="0" y="0" width="2880" height="1800" fill="#f7f4a4"></rect><defs><linearGradient id="grad1_0" x1="37.5%" y1="0%" x2="100%" y2="100%"><stop offset="17.999999999999996%" stop-color="#60d66d" stop-opacity="1"></stop><stop offset="82%" stop-color="#60d66d" stop-opacity="1"></stop></linearGradient></defs><defs><linearGradient id="grad1_1" x1="37.5%" y1="0%" x2="100%" y2="100%"><stop offset="17.999999999999996%" stop-color="#60d66d" stop-opacity="1"></stop><stop offset="82%" stop-color="#7fda70" stop-opacity="1"></stop></linearGradient></defs><defs><linearGradient id="grad1_2" x1="37.5%" y1="0%" x2="100%" y2="100%"><stop offset="17.999999999999996%" stop-color="#99df74" stop-opacity="1"></stop><stop offset="82%" stop-color="#7fda70" stop-opacity="1"></stop></linearGradient></defs><defs><linearGradient id="grad1_3" x1="37.5%" y1="0%" x2="100%" y2="100%"><stop offset="17.999999999999996%" stop-color="#99df74" stop-opacity="1"></stop><stop offset="82%" stop-color="#afe37a" stop-opacity="1"></stop></linearGradient></defs><defs><linearGradient id="grad1_4" x1="37.5%" y1="0%" x2="100%" y2="100%"><stop offset="17.999999999999996%" stop-color="#c4e783" stop-opacity="1"></stop><stop offset="82%" stop-color="#afe37a" stop-opacity="1"></stop></linearGradient></defs><defs><linearGradient id="grad1_5" x1="37.5%" y1="0%" x2="100%" y2="100%"><stop offset="17.999999999999996%" stop-color="#c4e783" stop-opacity="1"></stop><stop offset="82%" stop-color="#d7eb8c" stop-opacity="1"></stop></linearGradient></defs><defs><linearGradient id="grad1_6" x1="37.5%" y1="0%" x2="100%" y2="100%"><stop offset="17.999999999999996%" stop-color="#e8ef98" stop-opacity="1"></stop><stop offset="82%" stop-color="#d7eb8c" stop-opacity="1"></stop></linearGradient></defs><defs><linearGradient id="grad1_7" x1="37.5%" y1="0%" x2="100%" y2="100%"><stop offset="17.999999999999996%" stop-color="#e8ef98" stop-opacity="1"></stop><stop offset="82%" stop-color="#f7f4a4" stop-opacity="1"></stop></linearGradient></defs><defs><linearGradient id="grad2_0" x1="0%" y1="0%" x2="62.5%" y2="100%"><stop offset="17.999999999999996%" stop-color="#60d66d" stop-opacity="1"></stop><stop offset="82%" stop-color="#60d66d" stop-opacity="1"></stop></linearGradient></defs><defs><linearGradient id="grad2_1" x1="0%" y1="0%" x2="62.5%" y2="100%"><stop offset="17.999999999999996%" stop-color="#7fda70" stop-opacity="1"></stop><stop offset="82%" stop-color="#60d66d" stop-opacity="1"></stop></linearGradient></defs><defs><linearGradient id="grad2_2" x1="0%" y1="0%" x2="62.5%" y2="100%"><stop offset="17.999999999999996%" stop-color="#7fda70" stop-opacity="1"></stop><stop offset="82%" stop-color="#99df74" stop-opacity="1"></stop></linearGradient></defs><defs><linearGradient id="grad2_3" x1="0%" y1="0%" x2="62.5%" y2="100%"><stop offset="17.999999999999996%" stop-color="#afe37a" stop-opacity="1"></stop><stop offset="82%" stop-color="#99df74" stop-opacity="1"></stop></linearGradient></defs><defs><linearGradient id="grad2_4" x1="0%" y1="0%" x2="62.5%" y2="100%"><stop offset="17.999999999999996%" stop-color="#afe37a" stop-opacity="1"></stop><stop offset="82%" stop-color="#c4e783" stop-opacity="1"></stop></linearGradient></defs><defs><linearGradient id="grad2_5" x1="0%" y1="0%" x2="62.5%" y2="100%"><stop offset="17.999999999999996%" stop-color="#d7eb8c" stop-opacity="1"></stop><stop offset="82%" stop-color="#c4e783" stop-opacity="1"></stop></linearGradient></defs><defs><linearGradient id="grad2_6" x1="0%" y1="0%" x2="62.5%" y2="100%"><stop offset="17.999999999999996%" stop-color="#d7eb8c" stop-opacity="1"></stop><stop offset="82%" stop-color="#e8ef98" stop-opacity="1"></stop></linearGradient></defs><defs><linearGradient id="grad2_7" x1="0%" y1="0%" x2="62.5%" y2="100%"><stop offset="17.999999999999996%" stop-color="#f7f4a4" stop-opacity="1"></stop><stop offset="82%" stop-color="#e8ef98" stop-opacity="1"></stop></linearGradient></defs><g transform="translate(2880, 0)"><path d="M0 1698.1C-236.9 1552.4 -473.7 1406.7 -741 1283.4C-1008.3 1160.2 -1306 1059.2 -1470.6 849.1C-1635.2 638.9 -1666.7 319.4 -1698.1 0L0 0Z" fill="#eff29e"></path><path d="M0 1485.9C-207.2 1358.4 -414.5 1230.9 -648.4 1123C-882.3 1015.1 -1142.8 926.8 -1286.8 742.9C-1430.8 559 -1458.3 279.5 -1485.9 0L0 0Z" fill="#dfed92"></path><path d="M0 1273.6C-177.6 1164.3 -355.3 1055.1 -555.7 962.6C-756.2 870.1 -979.5 794.4 -1103 636.8C-1226.4 479.2 -1250 239.6 -1273.6 0L0 0Z" fill="#cde987"></path><path d="M0 1061.3C-148 970.3 -296.1 879.2 -463.1 802.2C-630.2 725.1 -816.3 662 -919.1 530.7C-1022 399.3 -1041.7 199.7 -1061.3 0L0 0Z" fill="#bae57e"></path><path d="M0 849.1C-118.4 776.2 -236.9 703.4 -370.5 641.7C-504.1 580.1 -653 529.6 -735.3 424.5C-817.6 319.4 -833.3 159.7 -849.1 0L0 0Z" fill="#a4e177"></path><path d="M0 636.8C-88.8 582.2 -177.6 527.5 -277.9 481.3C-378.1 435.1 -489.8 397.2 -551.5 318.4C-613.2 239.6 -625 119.8 -636.8 0L0 0Z" fill="#8cdd72"></path><path d="M0 424.5C-59.2 388.1 -118.4 351.7 -185.2 320.9C-252.1 290 -326.5 264.8 -367.7 212.3C-408.8 159.7 -416.7 79.9 -424.5 0L0 0Z" fill="#70d86e"></path><path d="M0 212.3C-29.6 194.1 -59.2 175.8 -92.6 160.4C-126 145 -163.3 132.4 -183.8 106.1C-204.4 79.9 -208.3 39.9 -212.3 0L0 0Z" fill="#60d66d"></path></g><g transform="translate(0, 1800)"><path d="M0 -1698.1C298.8 -1654.7 597.5 -1611.3 849.1 -1470.6C1100.6 -1329.9 1304.8 -1091.8 1438.5 -830.5C1572.1 -569.2 1635.1 -284.6 1698.1 0L0 0Z" fill="#eff29e"></path><path d="M0 -1485.9C261.4 -1447.9 522.8 -1409.9 742.9 -1286.8C963 -1163.7 1141.7 -955.3 1258.7 -726.7C1375.6 -498 1430.7 -249 1485.9 0L0 0Z" fill="#dfed92"></path><path d="M0 -1273.6C224.1 -1241 448.2 -1208.5 636.8 -1103C825.4 -997.4 978.6 -818.9 1078.9 -622.9C1179.1 -426.9 1226.3 -213.4 1273.6 0L0 0Z" fill="#cde987"></path><path d="M0 -1061.3C186.7 -1034.2 373.5 -1007.1 530.7 -919.1C687.9 -831.2 815.5 -682.4 899 -519.1C982.6 -355.7 1021.9 -177.9 1061.3 0L0 0Z" fill="#bae57e"></path><path d="M0 -849.1C149.4 -827.4 298.8 -805.7 424.5 -735.3C550.3 -664.9 652.4 -545.9 719.2 -415.3C786.1 -284.6 817.6 -142.3 849.1 0L0 0Z" fill="#a4e177"></path><path d="M0 -636.8C112 -620.5 224.1 -604.3 318.4 -551.5C412.7 -498.7 489.3 -409.4 539.4 -311.4C589.5 -213.4 613.2 -106.7 636.8 0L0 0Z" fill="#8cdd72"></path><path d="M0 -424.5C74.7 -413.7 149.4 -402.8 212.3 -367.7C275.1 -332.5 326.2 -273 359.6 -207.6C393 -142.3 408.8 -71.1 424.5 0L0 0Z" fill="#70d86e"></path><path d="M0 -212.3C37.3 -206.8 74.7 -201.4 106.1 -183.8C137.6 -166.2 163.1 -136.5 179.8 -103.8C196.5 -71.1 204.4 -35.6 212.3 0L0 0Z" fill="#60d66d"></path></g></svg>